<?xml version="1.0" standalone="no"?>
<!DOCTYPE svg PUBLIC "-//W3C//DTD SVG 20010904//EN"
 "http://www.w3.org/TR/2001/REC-SVG-20010904/DTD/svg10.dtd">
<svg version="1.0" xmlns="http://www.w3.org/2000/svg"
 width="870.000000pt" height="1024.000000pt" viewBox="0 0 870.000000 1024.000000"
 preserveAspectRatio="xMidYMid meet">

<g transform="translate(0.000000,1024.000000) scale(0.100000,-0.100000)"
fill="#000000" stroke="none">
<path d="M4995 10223 c-356 -4 -823 -37 -1060 -74 -38 -6 -113 -17 -165 -24
-95 -14 -266 -46 -453 -85 -323 -68 -828 -289 -1118 -489 -193 -134 -407 -330
-588 -541 -112 -129 -402 -432 -531 -553 -111 -104 -247 -207 -275 -207 -32 0
-180 -57 -279 -108 -91 -47 -126 -73 -210 -153 -184 -176 -253 -334 -293 -674
-16 -139 -17 -306 -17 -2230 -1 -1947 1 -2089 17 -2220 44 -336 105 -485 266
-646 85 -85 181 -155 276 -202 49 -25 202 -79 258 -91 16 -4 81 -46 145 -93
90 -66 177 -148 372 -347 572 -585 667 -674 878 -821 216 -151 509 -293 797
-386 183 -60 241 -74 485 -122 313 -62 389 -75 515 -88 61 -6 113 -13 116 -15
4 -2 108 -9 230 -14 123 -6 298 -17 389 -26 187 -19 303 -16 672 16 442 38
702 95 1011 224 157 65 358 176 507 279 281 195 567 489 769 790 204 304 430
765 566 1157 20 58 40 116 45 130 11 30 53 174 86 294 65 239 121 558 154 881
11 105 25 246 32 315 21 201 17 1449 -5 1690 -9 102 -21 255 -27 340 -5 85
-14 178 -20 205 -5 28 -16 106 -25 175 -9 69 -21 158 -26 199 -13 86 -8 108
76 391 73 242 104 381 115 526 24 293 -33 519 -195 771 -45 68 -105 136 -274
303 -120 118 -255 247 -301 285 -45 39 -131 113 -189 165 -58 52 -128 113
-156 135 -27 22 -98 81 -157 130 -167 141 -213 176 -358 271 -301 198 -702
368 -1040 441 -106 22 -169 33 -365 62 -38 5 -146 13 -240 17 -93 3 -188 9
-210 13 -22 3 -112 5 -200 4z m65 -33 c10 -6 -43 -10 -160 -10 -113 -1 -198
-6 -240 -15 -36 -8 -81 -15 -100 -15 -19 -1 -29 -4 -22 -7 26 -10 10 -23 -28
-23 -92 0 -11 40 125 62 103 17 402 23 425 8z m28 -26 c-9 -9 -27 -14 -44 -12
l-29 4 35 11 c49 16 57 15 38 -3z m-930 -56 c-3 -8 -34 -11 -104 -9 -72 2
-109 -2 -136 -13 -21 -9 -57 -16 -82 -16 -24 0 -57 -7 -72 -15 -16 -8 -39 -15
-51 -15 -12 0 -25 -4 -28 -10 -3 -5 -15 -10 -27 -10 -11 0 -33 -8 -48 -17 -26
-15 -27 -18 -12 -29 15 -12 13 -13 -15 -14 -71 0 -20 52 87 90 46 16 100 28
183 41 38 6 78 14 90 19 35 14 219 12 215 -2z m-43 -28 c-3 -5 -14 -10 -23
-10 -15 0 -15 2 -2 10 20 13 33 13 25 0z m296 -82 c21 -6 41 -19 44 -29 7 -21
-14 -59 -33 -59 -9 0 -8 6 4 25 15 24 15 24 -21 40 -47 19 -112 19 -184 1 -31
-8 -83 -20 -116 -27 -33 -7 -69 -19 -80 -26 -11 -7 -30 -13 -42 -13 -17 0 -21
-4 -16 -17 5 -13 2 -15 -15 -11 -23 6 -86 -46 -79 -66 2 -6 21 -16 43 -23 32
-9 35 -12 14 -13 -38 -3 -53 0 -72 17 -25 22 -23 31 18 69 31 30 66 49 149 83
45 19 134 41 166 42 19 0 43 4 54 9 29 13 122 12 166 -2z m-1256 -73 c-16 -8
-46 -14 -65 -15 -19 0 -48 -7 -64 -15 -16 -9 -37 -13 -46 -10 -9 3 -23 -1 -30
-10 -7 -8 -25 -15 -40 -15 -15 0 -33 -7 -40 -15 -7 -8 -17 -15 -24 -15 -14 0
-118 -52 -134 -67 -7 -7 -21 -13 -30 -13 -14 -1 -12 -5 7 -20 l23 -20 -25 0
c-14 0 -29 5 -32 11 -9 13 28 53 69 74 17 8 38 19 46 24 8 5 29 14 45 21 17 7
44 18 60 24 83 35 153 55 220 66 80 12 95 10 60 -5z m73 -22 c-15 -15 -30 -24
-34 -21 -8 9 28 46 46 47 9 1 5 -8 -12 -26z m300 -134 c2 -18 -7 -37 -33 -65
l-36 -39 26 42 c42 65 33 73 -79 73 -55 0 -96 -4 -98 -10 -2 -6 -21 -13 -43
-17 -22 -3 -46 -12 -53 -20 -7 -7 -22 -13 -32 -13 -10 0 -22 -4 -25 -10 -3 -5
-15 -10 -26 -10 -10 0 -19 -7 -19 -15 0 -8 -6 -12 -13 -9 -18 6 -67 -37 -67
-60 0 -14 -3 -16 -13 -7 -16 13 -27 5 -27 -20 0 -9 -5 -19 -12 -21 -8 -3 -5
-15 11 -36 19 -28 28 -32 67 -32 28 0 43 -4 39 -10 -10 -17 -105 -12 -111 5
-4 8 -12 15 -19 15 -20 0 -25 40 -11 75 13 29 81 93 116 108 8 4 22 11 30 16
8 5 33 17 55 26 22 10 48 22 57 26 10 5 26 9 35 10 10 0 34 6 53 14 22 8 71
12 130 11 94 -1 95 -1 98 -27z m-83 -119 c-3 -5 -11 -10 -16 -10 -6 0 -7 5 -4
10 3 6 11 10 16 10 6 0 7 -4 4 -10z m377 -86 c15 -8 29 -23 33 -33 11 -34 -13
-96 -55 -144 -42 -48 -138 -123 -146 -115 -2 3 13 16 33 30 77 51 120 103 138
162 14 44 13 47 -11 73 -23 24 -32 27 -86 26 -38 -2 -67 -8 -78 -18 -9 -8 -26
-15 -38 -15 -12 0 -22 -3 -22 -7 0 -5 -14 -9 -32 -10 -18 -1 -36 -9 -40 -18
-5 -8 -16 -15 -23 -15 -8 0 -15 -4 -15 -10 0 -5 -6 -10 -12 -10 -7 0 -29 -16
-48 -35 -19 -19 -38 -35 -42 -35 -4 0 -20 -14 -35 -31 -28 -31 -38 -65 -22
-75 16 -9 10 -34 -8 -34 -15 0 -14 -2 3 -18 34 -32 79 -42 141 -32 31 5 59 8
61 5 9 -9 -56 -19 -126 -19 -69 -1 -75 1 -98 27 -13 15 -24 38 -24 50 1 41 38
104 94 160 68 67 210 142 256 135 16 -3 31 0 33 5 9 27 116 27 169 1z m-1257
-54 c-24 -10 -138 -39 -183 -47 -23 -4 -32 -10 -28 -19 4 -10 -3 -14 -24 -14
-17 0 -30 -4 -30 -9 0 -5 -9 -13 -20 -16 -11 -3 -20 -13 -20 -21 0 -8 -7 -14
-16 -14 -17 0 -44 -23 -44 -38 0 -5 -8 -9 -17 -8 -10 0 -17 -5 -16 -11 2 -7
-4 -13 -13 -13 -12 0 -15 -7 -12 -30 4 -24 2 -27 -9 -19 -7 7 -13 8 -14 3 0
-5 -2 -20 -4 -34 -4 -31 18 -66 46 -75 13 -5 18 -10 11 -17 -6 -6 -22 -4 -45
6 -88 36 -48 147 90 250 34 25 67 46 72 46 6 0 11 4 11 8 0 4 15 14 33 21 17
8 48 20 67 28 48 20 97 31 145 31 31 1 35 -1 20 -8z m622 4 c-3 -3 -12 -4 -19
-1 -8 3 -5 6 6 6 11 1 17 -2 13 -5z m-559 -16 c18 -18 15 -53 -8 -97 -23 -46
-124 -148 -172 -174 l-33 -18 30 23 c97 75 155 145 173 210 8 29 7 38 -4 42
-15 6 -20 26 -6 26 4 0 13 -5 20 -12z m2729 -184 c-3 -3 -12 -4 -19 -1 -8 3
-5 6 6 6 11 1 17 -2 13 -5z m-229 -31 c-10 -2 -26 -2 -35 0 -10 3 -2 5 17 5
19 0 27 -2 18 -5z m-1498 -27 c0 -9 -90 -49 -96 -43 -4 4 2 9 12 13 10 3 30
12 44 19 25 15 40 18 40 11z m1293 -3 c-7 -2 -19 -2 -25 0 -7 3 -2 5 12 5 14
0 19 -2 13 -5z m-1975 -32 c18 -16 22 -29 21 -73 0 -34 -7 -64 -20 -83 -10
-16 -23 -39 -28 -50 -14 -31 -110 -120 -171 -157 -80 -50 -137 -68 -212 -68
-65 0 -68 1 -94 35 -32 42 -30 86 7 160 23 47 132 157 173 176 11 6 35 18 51
27 94 52 230 68 273 33z m1800 12 c-10 -2 -28 -2 -40 0 -13 2 -5 4 17 4 22 1
32 -1 23 -4z m-2343 -33 c-3 -5 -12 -10 -18 -10 -7 0 -6 4 3 10 19 12 23 12
15 0z m2138 3 c-13 -2 -35 -2 -50 0 -16 2 -5 4 22 4 28 0 40 -2 28 -4z m-2188
-33 c-3 -5 -16 -10 -28 -10 -18 0 -19 2 -7 10 20 13 43 13 35 0z m2040 -20 c3
-5 -1 -10 -10 -10 -9 0 -13 5 -10 10 3 6 8 10 10 10 2 0 7 -4 10 -10z m-2115
-10 c-8 -5 -26 -10 -40 -10 -20 0 -22 2 -10 10 8 5 26 10 40 10 20 0 22 -2 10
-10z m2139 -49 c14 -10 37 -22 51 -26 66 -20 271 -145 415 -254 122 -92 347
-309 466 -451 l89 -105 0 -75 c0 -46 -12 -132 -31 -220 -54 -255 -69 -352 -75
-496 -12 -250 36 -441 181 -727 45 -89 116 -228 158 -309 109 -215 177 -416
226 -678 51 -269 59 -474 53 -1290 -4 -509 16 -671 114 -953 l24 -69 -31 -151
c-31 -152 -38 -184 -86 -352 -155 -550 -454 -1160 -753 -1539 -153 -194 -411
-431 -583 -535 l-39 -24 -75 74 c-181 179 -342 419 -414 619 -19 53 -23 84
-22 165 0 87 4 109 30 170 36 87 79 150 140 207 113 105 163 161 188 212 25
52 26 55 11 92 -14 33 -14 36 -1 20 8 -11 15 -27 15 -35 0 -59 72 144 100 280
35 177 40 381 40 1766 l0 1343 42 21 c48 25 158 132 158 154 0 8 5 15 10 15 6
0 10 5 10 11 0 6 7 27 16 46 14 28 15 38 4 58 -18 34 -40 40 -40 10 0 -13 5
-27 10 -30 6 -3 10 -10 10 -16 0 -5 -10 1 -22 13 -19 19 -20 25 -10 52 8 20 8
34 2 40 -7 7 -10 3 -10 -10 -1 -17 -2 -17 -13 -3 -7 9 -18 14 -25 12 -8 -3
-10 1 -5 13 5 13 3 16 -9 11 -12 -4 -21 4 -32 28 -25 53 -19 125 10 125 8 0
14 6 14 13 0 7 14 14 32 15 18 2 36 8 40 15 6 9 10 9 17 -1 12 -20 23 26 10
49 -6 12 -5 20 1 24 8 5 7 11 0 20 -7 8 -9 23 -5 35 4 14 2 20 -8 20 -22 0 -9
41 20 63 26 21 31 65 8 73 -8 4 -15 16 -15 29 0 12 -7 28 -15 35 -8 7 -15 18
-15 24 0 16 -107 118 -151 144 l-36 22 -7 232 c-10 365 -45 546 -141 742 -41
86 -71 130 -129 195 -145 160 -195 236 -227 351 -52 182 1 374 177 636 63 93
73 97 133 55z m48 23 c-3 -3 -12 -4 -19 -1 -8 3 -5 6 6 6 11 1 17 -2 13 -5z
m58 -24 c3 -5 -1 -10 -9 -10 -9 0 -16 5 -16 10 0 6 4 10 9 10 6 0 13 -4 16
-10z m62 -26 c-3 -3 -12 -4 -19 -1 -8 3 -5 6 6 6 11 1 17 -2 13 -5z m108 -54
c3 -5 -1 -10 -9 -10 -9 0 -16 5 -16 10 0 6 4 10 9 10 6 0 13 -4 16 -10z m260
-160 c3 -5 2 -10 -4 -10 -5 0 -13 5 -16 10 -3 6 -2 10 4 10 5 0 13 -4 16 -10z
m40 -30 c3 -6 -1 -7 -9 -4 -18 7 -21 14 -7 14 6 0 13 -4 16 -10z m30 -20 c3
-5 1 -10 -4 -10 -6 0 -11 5 -11 10 0 6 2 10 4 10 3 0 8 -4 11 -10z m40 -30 c3
-5 1 -10 -4 -10 -6 0 -11 5 -11 10 0 6 2 10 4 10 3 0 8 -4 11 -10z m100 -80
c3 -5 2 -10 -4 -10 -5 0 -13 5 -16 10 -3 6 -2 10 4 10 5 0 13 -4 16 -10z m90
-80 c3 -5 1 -10 -4 -10 -6 0 -11 5 -11 10 0 6 2 10 4 10 3 0 8 -4 11 -10z m80
-80 c3 -5 1 -10 -4 -10 -6 0 -11 5 -11 10 0 6 2 10 4 10 3 0 8 -4 11 -10z m80
-80 c3 -5 1 -10 -4 -10 -6 0 -11 5 -11 10 0 6 2 10 4 10 3 0 8 -4 11 -10z m84
-91 c18 -21 29 -39 25 -38 -5 0 -24 18 -43 40 -18 21 -29 39 -25 38 5 0 24
-18 43 -40z m-2019 -88 c36 -6 104 -10 151 -10 102 1 158 -13 215 -52 44 -30
74 -86 74 -137 0 -27 -29 -123 -41 -132 -17 -14 -16 -66 2 -91 11 -15 22 -41
25 -57 3 -16 19 -43 34 -60 35 -39 42 -66 46 -182 2 -52 6 -113 9 -135 10 -78
6 -520 -5 -555 -6 -19 -15 -65 -20 -103 -6 -37 -19 -93 -30 -124 -23 -65 -24
-73 -10 -73 6 0 10 10 10 23 0 21 42 111 62 132 10 10 3 -8 -26 -78 -9 -21
-23 -61 -31 -90 -7 -29 -14 -42 -14 -29 -1 26 -16 29 -26 5 -5 -10 -10 -88
-12 -173 -5 -147 -1 -184 27 -300 6 -25 13 -56 15 -70 11 -74 38 -208 46 -225
32 -79 42 -414 21 -772 -9 -164 -7 -1313 3 -1583 10 -254 9 -275 -10 -590 -2
-25 -12 -89 -24 -144 -12 -54 -21 -100 -21 -102 0 -2 -7 -4 -15 -4 -8 0 -16
-4 -16 -10 -1 -5 -2 -14 -3 -19 -3 -24 -46 -59 -69 -57 -21 3 -29 -5 -52 -50
-15 -30 -28 -54 -30 -54 -1 0 9 37 22 82 75 258 75 264 71 2753 -4 2345 -2
2245 -53 2448 -73 286 -228 457 -475 522 -121 32 -562 30 -1470 -5 -135 -6
-447 -17 -695 -25 -247 -9 -459 -18 -470 -21 -13 -4 -17 -3 -10 4 10 10 194
27 425 38 74 4 137 10 140 15 4 5 23 10 43 11 20 2 37 6 37 10 0 4 39 8 88 8
110 1 227 7 317 14 39 4 162 9 275 11 113 3 241 7 285 10 274 17 427 26 475
30 30 2 156 7 280 11 124 3 226 7 227 8 4 3 141 -12 203 -23z m2108 -21 c7
-11 11 -20 9 -20 -2 0 -12 9 -22 20 -10 11 -14 20 -9 20 5 0 15 -9 22 -20z
m-2357 -81 c46 -6 116 -23 154 -36 89 -32 214 -113 175 -113 -6 0 -21 7 -34
15 -21 14 -37 14 -157 0 -204 -24 -407 -33 -1269 -60 -768 -24 -1078 -35
-1470 -55 -229 -11 -218 -11 -227 2 -4 8 -9 5 -14 -8 -6 -14 -8 -8 -8 20 -3
131 142 166 774 186 187 6 437 15 555 20 118 5 386 15 595 20 209 6 400 12
425 14 127 8 427 5 501 -5z m2424 -9 c3 -5 1 -10 -4 -10 -6 0 -11 5 -11 10 0
6 2 10 4 10 3 0 8 -4 11 -10z m-5000 -40 c-11 -5 -27 -9 -35 -9 -13 -1 -13 0
0 9 8 5 24 9 35 9 l20 0 -20 -9z m7524 -156 c32 -29 62 -69 83 -111 28 -58 33
-78 36 -165 3 -54 0 -98 -5 -98 -4 0 -21 35 -37 78 -16 42 -53 131 -83 197
-30 66 -57 126 -60 133 -11 24 16 11 66 -34z m-2391 -9 c-3 -3 -9 2 -12 12 -6
14 -5 15 5 6 7 -7 10 -15 7 -18z m27 -35 c3 -5 1 -10 -4 -10 -6 0 -11 5 -11
10 0 6 2 10 4 10 3 0 8 -4 11 -10z m1211 -35 c69 -41 108 -83 136 -144 27 -59
14 -69 -48 -36 -56 30 -138 113 -162 165 -9 19 -18 38 -20 43 -10 18 40 4 94
-28z m-1509 -137 c-3 -8 -6 -5 -6 6 -1 11 2 17 5 13 3 -3 4 -12 1 -19z m-5372
-85 c-4 -16 -9 -82 -11 -148 -2 -66 -6 -151 -9 -190 -4 -38 -9 -1040 -12
-2225 -5 -2257 -5 -2286 37 -2530 19 -107 78 -238 138 -302 14 -16 21 -28 16
-28 -16 0 -91 97 -129 165 -46 83 -81 192 -108 337 l-22 123 0 2225 c0 2318
-1 2288 41 2446 15 59 53 154 61 154 3 0 2 -12 -2 -27z m4327 -24 c24 -28 30
-126 26 -436 -3 -264 -2 -272 17 -282 19 -9 18 -10 -5 -10 -14 0 -43 6 -65 14
-22 8 -62 14 -90 15 -32 0 -45 3 -36 9 10 6 10 13 2 28 -19 37 -22 87 -11 188
6 55 12 165 14 245 3 148 15 199 54 243 20 22 69 15 94 -14z m1021 -66 c-7
-71 -11 -75 -12 -10 -1 31 3 57 8 57 5 0 6 -21 4 -47z m2265 -88 c85 -79 129
-179 108 -244 -7 -21 -10 -22 -18 -8 -5 10 -14 17 -20 17 -6 0 -21 11 -34 25
-13 14 -28 25 -34 25 -5 0 -10 6 -10 14 0 8 -7 16 -15 20 -8 3 -15 15 -15 26
0 11 -4 20 -10 20 -5 0 -10 11 -10 24 0 14 -4 27 -9 30 -12 8 -25 82 -16 96
11 18 22 11 83 -45z m-1198 15 c55 -28 106 -75 135 -124 47 -80 42 -176 -9
-176 -14 0 -28 5 -31 10 -3 6 -13 10 -22 10 -15 0 -86 51 -111 80 -30 35 -62
117 -62 161 0 25 3 49 7 52 12 13 54 7 93 -13z m-650 -155 c18 -58 30 -108 27
-111 -10 -10 -46 72 -62 138 -17 74 -18 78 -7 78 5 0 23 -47 42 -105z m-423
28 c-3 -10 -5 -4 -5 12 0 17 2 24 5 18 2 -7 2 -21 0 -30z m30 -125 c-3 -7 -5
-2 -5 12 0 14 2 19 5 13 2 -7 2 -19 0 -25z m1733 -128 c12 -8 11 -10 -7 -10
-12 0 -25 5 -28 10 -8 13 15 13 35 0z m-1595 -80 c3 -5 1 -10 -4 -10 -6 0 -11
5 -11 10 0 6 2 10 4 10 3 0 8 -4 11 -10z m35 -30 c0 -5 -2 -10 -4 -10 -3 0 -8
5 -11 10 -3 6 -1 10 4 10 6 0 11 -4 11 -10z m2295 0 c-3 -5 -11 -10 -16 -10
-6 0 -7 5 -4 10 3 6 11 10 16 10 6 0 7 -4 4 -10z m-58 -26 c-3 -3 -12 -4 -19
-1 -8 3 -5 6 6 6 11 1 17 -2 13 -5z m-74 -31 c-7 -2 -19 -2 -25 0 -7 3 -2 5
12 5 14 0 19 -2 13 -5z m-4968 -13 c4 -6 -6 -10 -22 -10 -22 0 -25 2 -13 10
19 12 27 12 35 0z m-162 -7 c-7 -2 -21 -2 -30 0 -10 3 -4 5 12 5 17 0 24 -2
18 -5z m3132 -11 c-3 -3 -11 0 -18 7 -9 10 -8 11 6 5 10 -3 15 -9 12 -12z
m1895 8 c-8 -5 -33 -9 -55 -9 -39 1 -39 2 -10 9 17 4 41 8 55 9 20 0 22 -1 10
-9z m-5520 -20 c0 -6 -40 -9 -102 -8 l-103 2 90 6 c50 3 96 7 103 8 6 1 12 -2
12 -8z m415 0 c-3 -5 -11 -10 -16 -10 -6 0 -7 5 -4 10 3 6 11 10 16 10 6 0 7
-4 4 -10z m300 0 c3 -5 2 -10 -4 -10 -5 0 -13 5 -16 10 -3 6 -2 10 4 10 5 0
13 -4 16 -10z m-1158 -67 c-2 -16 -4 -5 -4 22 0 28 2 40 4 28 2 -13 2 -35 0
-50z m4176 60 c-7 -2 -19 -2 -25 0 -7 3 -2 5 12 5 14 0 19 -2 13 -5z m1525 0
c-32 -2 -86 -2 -120 0 -35 2 -9 3 57 3 66 0 94 -1 63 -3z m-5271 -75 c-2 -13
-4 -3 -4 22 0 25 2 35 4 23 2 -13 2 -33 0 -45z m778 42 c10 -11 16 -20 13 -20
-3 0 -13 9 -23 20 -10 11 -16 20 -13 20 3 0 13 -9 23 -20z m-455 -34 c0 -3 -4
-8 -10 -11 -5 -3 -10 -1 -10 4 0 6 5 11 10 11 6 0 10 -2 10 -4z m1956 -101
c15 -38 31 -45 36 -18 3 15 4 15 17 0 11 -15 11 -17 -2 -17 -16 0 -29 -57 -15
-66 5 -4 8 -20 7 -38 -3 -50 12 -124 27 -130 10 -4 12 -17 8 -48 -6 -39 -3
-46 21 -63 70 -51 72 -53 52 -60 -11 -5 -23 0 -36 16 -24 30 -39 18 -18 -14
11 -18 13 -33 6 -68 -4 -24 -8 -47 -9 -51 0 -5 -6 -8 -14 -8 -15 0 -27 -22
-32 -60 -2 -14 -8 -26 -14 -28 -5 -2 -10 -13 -10 -23 0 -11 -5 -30 -11 -41 -8
-15 -8 -19 0 -14 7 5 11 -2 11 -17 0 -29 20 -47 61 -56 16 -3 29 -10 27 -16
-4 -11 -38 -15 -38 -3 0 13 -28 9 -33 -4 -3 -7 -6 -3 -6 9 -1 33 -25 19 -41
-25 -7 -20 -15 -32 -17 -25 -2 6 3 26 12 43 25 49 2 63 -25 16 -12 -20 -26
-36 -32 -36 -5 0 -1 16 11 36 22 37 27 64 12 64 -5 0 -18 -16 -30 -35 -11 -19
-25 -35 -31 -35 -12 0 -8 8 22 52 37 54 14 66 -32 16 -18 -20 -30 -27 -30 -18
0 8 14 29 32 47 25 26 29 36 20 45 -10 10 -18 7 -38 -15 -13 -15 -29 -27 -34
-27 -19 0 -10 20 20 42 31 22 40 48 18 48 -7 0 -22 -7 -32 -15 -11 -8 -27 -15
-35 -15 -16 1 14 31 53 55 10 7 13 15 7 23 -7 12 -14 11 -39 -2 -38 -19 -42
-20 -42 -2 0 7 15 17 32 22 19 6 34 17 36 28 4 17 -1 18 -44 11 -42 -6 -46 -5
-35 8 7 9 24 17 39 19 16 2 28 10 30 21 3 14 -4 17 -37 17 -23 0 -41 5 -41 10
0 10 9 13 50 14 35 1 41 36 7 36 -33 0 -57 10 -57 22 0 7 16 9 40 5 34 -4 40
-2 40 13 0 13 -11 21 -37 27 -20 4 -39 15 -41 22 -5 14 10 13 66 -4 39 -13 26
23 -18 45 -39 20 -53 40 -27 40 7 0 22 -7 33 -15 24 -18 44 -19 44 -1 0 7 -19
26 -42 42 -32 21 -39 29 -26 32 10 2 31 -6 47 -17 35 -25 41 -26 41 -6 0 8
-16 27 -35 42 -19 15 -35 31 -35 36 0 17 28 5 55 -23 44 -46 51 -15 8 37 -41
50 -33 57 14 11 18 -17 36 -28 40 -24 7 6 1 18 -35 74 -10 15 -11 22 -3 22 7
0 21 -16 32 -35 12 -19 25 -35 30 -35 14 0 10 33 -7 58 -8 12 -14 28 -11 35 2
6 12 -5 22 -25 11 -21 25 -38 32 -38 16 0 16 3 -2 47 -17 39 -17 43 -9 43 3 0
12 -16 20 -35z m31 13 c-3 -8 -6 -5 -6 6 -1 11 2 17 5 13 3 -3 4 -12 1 -19z
m-2761 -74 c-3 -42 -8 -79 -11 -82 -7 -7 -6 88 1 127 11 54 16 34 10 -45z
m694 52 c0 -3 -4 -8 -10 -11 -5 -3 -10 -1 -10 4 0 6 5 11 10 11 6 0 10 -2 10
-4z m1652 -60 c14 -15 21 -17 30 -8 7 7 26 12 43 11 l30 0 -34 -12 c-41 -14
-52 -36 -22 -44 28 -7 26 -19 -4 -27 -14 -4 -30 -17 -35 -29 l-9 -22 -6 22
c-4 12 -18 23 -33 26 -33 6 -40 2 -54 -31 -20 -52 -19 -4 2 51 24 65 62 117
68 97 3 -8 13 -23 24 -34z m-1914 -10 c1 -18 -2 -44 -7 -57 -8 -19 -10 -12 -8
34 1 62 12 78 15 23z m229 12 c-3 -8 -6 -5 -6 6 -1 11 2 17 5 13 3 -3 4 -12 1
-19z m670 -10 c-3 -8 -6 -5 -6 6 -1 11 2 17 5 13 3 -3 4 -12 1 -19z m-700 -50
c-3 -8 -6 -5 -6 6 -1 11 2 17 5 13 3 -3 4 -12 1 -19z m2383 0 c0 -18 -2 -20
-9 -8 -6 8 -7 18 -5 22 9 14 14 9 14 -14z m33 -29 c-9 -18 -18 -28 -21 -21 -3
10 29 64 36 58 1 -2 -5 -18 -15 -37z m-2045 4 c-10 -2 -26 -2 -35 0 -10 3 -2
5 17 5 19 0 27 -2 18 -5z m-397 -40 c-8 -15 -10 -15 -11 -2 0 17 10 32 18 25
2 -3 -1 -13 -7 -23z m756 -35 c-2 -13 -4 -5 -4 17 -1 22 1 32 4 23 2 -10 2
-28 0 -40z m1027 11 c-3 -5 -14 -9 -25 -9 -16 0 -18 2 -7 14 14 14 42 10 32
-5z m-3189 -9 c-3 -5 -14 -10 -24 -10 -10 0 -24 -7 -31 -15 -7 -8 -19 -15 -28
-15 -8 0 -20 -7 -27 -16 -8 -12 -18 -14 -36 -9 l-24 8 25 10 c60 23 76 30 100
43 30 16 54 18 45 4z m-373 -40 c-10 -26 -8 -34 9 -51 17 -17 28 -20 57 -14
20 4 49 13 64 21 31 16 74 18 83 4 6 -10 -2 -13 -45 -12 -16 1 -19 -1 -7 -4
26 -8 21 -17 -26 -39 -23 -11 -44 -22 -47 -25 -32 -35 -96 -50 -118 -28 -19
19 -14 97 9 145 24 49 37 51 21 3z m1279 -35 l-5 -40 -6 35 c-3 19 -4 46 -1
59 7 43 19 -7 12 -54z m476 33 c-3 -8 -6 -5 -6 6 -1 11 2 17 5 13 3 -3 4 -12
1 -19z m-180 -75 c-2 -16 -4 -5 -4 22 0 28 2 40 4 28 2 -13 2 -35 0 -50z
m-1212 38 c3 -5 1 -12 -5 -16 -5 -3 -10 1 -10 9 0 18 6 21 15 7z m35 -51 c0
-5 -18 -10 -40 -10 -22 0 -40 5 -40 10 0 6 18 10 40 10 22 0 40 -4 40 -10z
m1332 -15 c-2 -14 -6 -25 -8 -25 -2 0 -4 11 -4 25 0 14 4 25 9 25 4 0 6 -11 3
-25z m295 -37 c-3 -7 -5 -2 -5 12 0 14 2 19 5 13 2 -7 2 -19 0 -25z m-776
-130 c-9 -42 -9 -41 -9 22 -1 48 2 59 8 43 5 -13 5 -41 1 -65z m450 10 c-9
-31 -9 -31 -10 -6 -1 30 11 67 16 51 2 -6 0 -26 -6 -45z m-154 -55 c-2 -16 -4
-3 -4 27 0 30 2 43 4 28 2 -16 2 -40 0 -55z m1850 20 c-3 -10 -5 -2 -5 17 0
19 2 27 5 18 2 -10 2 -26 0 -35z m-1394 -8 c-7 -21 -13 -19 -13 6 0 11 4 18
10 14 5 -3 7 -12 3 -20z m234 -37 c-2 -13 -4 -5 -4 17 -1 22 1 32 4 23 2 -10
2 -28 0 -40z m300 -80 c-2 -18 -4 -6 -4 27 0 33 2 48 4 33 2 -15 2 -42 0 -60z
m-1316 -93 l-9 -40 -1 46 c-1 26 2 62 7 80 l7 34 3 -40 c2 -22 -1 -58 -7 -80z
m2972 56 c3 -14 1 -18 -9 -14 -8 3 -14 11 -14 19 0 21 17 17 23 -5z m-2516
-218 c-1 -43 -3 -8 -3 77 0 85 2 120 3 78 2 -43 2 -113 0 -155z m-156 127 c-9
-22 -10 -20 -10 21 -1 25 2 49 7 53 11 12 14 -47 3 -74z m2639 60 c0 -5 -5
-10 -11 -10 -5 0 -7 5 -4 10 3 6 8 10 11 10 2 0 4 -4 4 -10z m-2183 -187 c-2
-37 -3 -9 -3 62 0 72 1 102 3 68 2 -34 2 -93 0 -130z m230 125 c-2 -13 -4 -5
-4 17 -1 22 1 32 4 23 2 -10 2 -28 0 -40z m1923 32 c0 -5 -4 -10 -10 -10 -5 0
-10 5 -10 10 0 6 5 10 10 10 6 0 10 -4 10 -10z m-40 -20 c0 -5 -2 -10 -4 -10
-3 0 -8 5 -11 10 -3 6 -1 10 4 10 6 0 11 -4 11 -10z m-30 -10 c0 -5 -2 -10 -4
-10 -3 0 -8 5 -11 10 -3 6 -1 10 4 10 6 0 11 -4 11 -10z m-1553 -52 c-3 -8 -6
-5 -6 6 -1 11 2 17 5 13 3 -3 4 -12 1 -19z m1429 -4 c-4 -9 -9 -15 -11 -12 -3
3 -3 13 1 22 4 9 9 15 11 12 3 -3 3 -13 -1 -22z m-2739 -126 c-2 -18 -4 -4 -4
32 0 36 2 50 4 33 2 -18 2 -48 0 -65z m993 73 c0 -6 -4 -13 -10 -16 -5 -3 -10
1 -10 9 0 9 5 16 10 16 6 0 10 -4 10 -9z m-701 -135 c-9 -8 -10 -3 -5 23 3 18
7 43 8 55 1 11 3 1 5 -23 3 -26 -1 -48 -8 -55z m2397 15 c-10 -11 -15 -25 -11
-31 8 -13 8 -70 -1 -448 -6 -249 -5 -254 16 -277 l21 -22 -53 18 c-34 12 -66
16 -88 12 -34 -6 -35 -5 -17 14 9 11 15 22 12 25 -6 6 -13 60 -19 163 -5 69
-15 163 -41 376 -6 53 16 123 42 134 14 5 14 7 -3 19 -16 12 -12 14 36 15 30
0 69 5 85 10 17 5 32 10 34 10 2 1 -4 -8 -13 -18z m-1429 -23 c-3 -8 -6 -5 -6
6 -1 11 2 17 5 13 3 -3 4 -12 1 -19z m-2223 -20 c22 -6 48 -17 57 -25 8 -7 21
-13 28 -13 27 0 112 -101 146 -173 42 -89 70 -233 60 -317 -12 -99 -17 -125
-26 -134 -12 -13 -11 36 0 89 20 88 21 116 6 138 -14 20 -15 16 -15 -50 0 -74
-6 -103 -21 -103 -5 0 -8 45 -7 101 0 80 3 99 14 95 20 -8 23 68 3 89 -5 5 -9
21 -9 36 0 15 -5 31 -11 34 -5 4 -15 17 -20 28 -24 53 -35 67 -47 55 -13 -13
11 -67 35 -81 8 -5 11 -16 8 -27 -3 -11 0 -22 8 -27 8 -4 17 -27 20 -51 4 -36
3 -41 -9 -31 -8 6 -14 24 -14 40 0 15 -7 34 -15 43 -8 8 -15 20 -15 26 0 11
-40 69 -70 101 -30 32 -96 66 -142 73 -32 5 -51 14 -58 27 -8 14 -7 19 2 19
10 0 9 3 -1 9 -12 8 -12 12 -2 25 16 19 39 20 95 4z m2193 -50 c-3 -8 -6 -5
-6 6 -1 11 2 17 5 13 3 -3 4 -12 1 -19z m-1253 -55 c-6 -87 -14 -94 -14 -11 0
55 5 78 16 78 1 0 0 -30 -2 -67z m523 30 c-3 -10 -5 -4 -5 12 0 17 2 24 5 18
2 -7 2 -21 0 -30z m713 -23 c0 -5 -5 -10 -11 -10 -5 0 -7 5 -4 10 3 6 8 10 11
10 2 0 4 -4 4 -10z m-943 -77 c-2 -16 -4 -3 -4 27 0 30 2 43 4 28 2 -16 2 -40
0 -55z m916 32 c-3 -9 -8 -14 -10 -11 -3 3 -2 9 2 15 9 16 15 13 8 -4z m-2130
-13 c54 -29 94 -73 127 -140 26 -52 32 -77 35 -150 2 -48 1 -71 -1 -52 -8 60
-14 80 -26 80 -7 0 -9 -21 -5 -67 4 -50 2 -73 -9 -87 -8 -11 -14 -28 -14 -38
0 -10 -7 -30 -16 -43 -16 -25 -13 -55 6 -55 5 0 10 11 10 25 0 15 6 25 15 25
9 0 12 -6 8 -17 -9 -25 -35 -65 -56 -86 -45 -45 -68 26 -27 82 39 53 53 100
57 188 4 64 1 88 -11 105 -9 12 -16 29 -16 36 0 44 -110 132 -164 132 -26 0
-41 34 -30 64 8 22 75 21 117 -2z m1474 -14 c-3 -8 -6 -5 -6 6 -1 11 2 17 5
13 3 -3 4 -12 1 -19z m-579 -149 l-4 -39 153 0 c95 0 153 -4 153 -10 0 -6 -60
-10 -160 -10 l-160 0 0 28 c0 15 3 45 7 67 8 48 17 21 11 -36z m-895 -1 c32
-33 45 -56 55 -96 16 -70 15 -82 -5 -104 -15 -17 -17 -17 -35 -2 -11 10 -18
31 -18 52 0 50 -27 88 -70 101 -42 12 -53 30 -44 67 5 19 13 24 40 24 27 0 44
-9 77 -42z m1562 12 c10 -11 16 -20 13 -20 -3 0 -13 9 -23 20 -10 11 -16 20
-13 20 3 0 13 -9 23 -20z m105 -66 c0 -2 -9 -4 -21 -4 -11 0 -18 4 -14 10 5 8
35 3 35 -6z m237 0 c-3 -3 -12 -4 -19 -1 -8 3 -5 6 6 6 11 1 17 -2 13 -5z
m-119 -21 c-10 -2 -26 -2 -35 0 -10 3 -2 5 17 5 19 0 27 -2 18 -5z m-1633
-230 c-3 -13 -10 -21 -15 -18 -14 9 -12 52 2 78 13 22 13 21 16 -7 2 -15 1
-39 -3 -53z m940 47 c14 -6 2 -9 -40 -9 -42 0 -54 3 -40 9 11 5 29 9 40 9 11
0 29 -4 40 -9z m881 -2 c4 -5 -15 -8 -42 -7 -31 0 -42 3 -31 8 24 9 63 8 73
-1z m-1021 -28 c-3 -5 -15 -10 -26 -10 -10 0 -19 5 -19 10 0 6 12 10 26 10 14
0 23 -4 19 -10z m235 0 c0 -13 -11 -13 -30 0 -12 8 -11 10 8 10 12 0 22 -4 22
-10z m633 3 c-7 -2 -19 -2 -25 0 -7 3 -2 5 12 5 14 0 19 -2 13 -5z m250 0 c-7
-2 -19 -2 -25 0 -7 3 -2 5 12 5 14 0 19 -2 13 -5z m-1860 -40 c-4 -21 -13 -43
-21 -49 -8 -6 -12 -16 -8 -22 4 -6 -2 -17 -13 -23 -10 -7 -17 -19 -14 -26 8
-20 31 -16 38 7 3 11 10 20 15 20 5 0 8 12 7 27 -1 19 3 28 15 31 14 3 16 -1
9 -25 -11 -38 -58 -120 -94 -166 -36 -44 -115 -97 -145 -97 -33 0 -26 18 13
34 19 8 35 21 35 28 0 10 3 9 10 -2 7 -12 15 -8 42 20 18 19 32 38 30 43 -1 4
6 7 16 7 12 0 17 8 17 25 0 14 -2 25 -3 25 -2 0 -29 -22 -60 -50 -31 -27 -64
-50 -74 -50 -11 0 -18 -7 -18 -20 0 -11 -7 -20 -15 -20 -8 0 -15 -4 -15 -10 0
-5 -12 -10 -27 -10 -26 0 -26 1 -7 15 17 13 14 14 -41 14 -33 -1 -52 -3 -42
-6 10 -2 16 -12 15 -21 -2 -14 7 -18 47 -22 35 -4 45 -7 32 -12 -40 -17 -104
-5 -174 30 -22 11 -33 24 -33 38 0 55 25 68 69 37 34 -23 157 -23 193 1 15 10
32 15 38 11 6 -4 9 -3 8 2 -2 4 13 24 32 43 20 19 44 53 55 75 11 22 26 46 33
53 6 7 12 22 12 32 0 25 10 50 20 50 5 0 6 -17 3 -37z m687 17 c0 -5 -6 -10
-14 -10 -7 0 -19 -7 -26 -15 -7 -8 -18 -15 -24 -15 -12 0 44 49 57 50 4 0 7
-4 7 -10z m325 0 c3 -5 1 -10 -4 -10 -6 0 -11 5 -11 10 0 6 2 10 4 10 3 0 8
-4 11 -10z m540 0 c-3 -5 -12 -10 -18 -10 -7 0 -6 4 3 10 19 12 23 12 15 0z
m-497 -40 c7 -11 11 -20 9 -20 -2 0 -12 9 -22 20 -10 11 -14 20 -9 20 5 0 15
-9 22 -20z m452 10 c0 -5 -5 -10 -11 -10 -5 0 -7 5 -4 10 3 6 8 10 11 10 2 0
4 -4 4 -10z m435 0 c3 -5 1 -10 -4 -10 -6 0 -11 5 -11 10 0 6 2 10 4 10 3 0 8
-4 11 -10z m-1335 -29 c0 -5 -3 -11 -7 -13 -12 -5 -73 -86 -73 -96 0 -5 -7
-15 -15 -22 -9 -7 -14 -19 -11 -26 3 -7 1 -16 -4 -19 -15 -9 -50 -90 -50 -115
0 -18 -3 -21 -11 -13 -9 9 -6 26 12 67 12 31 27 56 32 56 5 0 7 6 4 13 -4 13
50 104 83 140 11 11 20 24 20 29 0 4 5 8 10 8 6 0 10 -4 10 -9z m870 6 c0 -2
-10 -12 -22 -23 l-23 -19 19 23 c18 21 26 27 26 19z m-50 -57 c0 -5 -5 -10
-11 -10 -5 0 -7 5 -4 10 3 6 8 10 11 10 2 0 4 -4 4 -10z m-312 -31 c-3 -8 -7
-3 -11 10 -4 17 -3 21 5 13 5 -5 8 -16 6 -23z m907 11 c3 -5 1 -10 -4 -10 -6
0 -11 5 -11 10 0 6 2 10 4 10 3 0 8 -4 11 -10z m1426 -20 c19 -15 21 -22 11
-28 -11 -8 -13 -131 -12 -673 2 -865 1 -859 19 -859 22 0 -26 -47 -55 -54 -15
-4 -41 1 -67 13 -39 18 -40 19 -14 20 18 1 26 5 21 12 -3 6 -8 261 -11 567 -6
894 -8 970 -16 978 -4 4 -13 2 -19 -4 -15 -15 -31 -16 -22 -1 14 22 70 49 105
49 22 0 46 -8 60 -20z m-2068 -30 c-3 -12 -8 -19 -11 -16 -5 6 5 36 12 36 2 0
2 -9 -1 -20z m-233 -21 c0 -11 -4 -17 -10 -14 -5 3 -10 13 -10 21 0 8 5 14 10
14 6 0 10 -9 10 -21z m197 -41 c-3 -8 -6 -5 -6 6 -1 11 2 17 5 13 3 -3 4 -12
1 -19z m1846 -69 c-17 -50 -18 -100 -18 -639 0 -537 1 -589 18 -630 24 -62 24
-63 4 -68 -12 -2 -22 8 -35 35 -16 35 -17 92 -17 658 l0 620 23 49 c15 34 26
46 33 39 7 -7 5 -27 -8 -64z m-2026 4 c-3 -10 -5 -4 -5 12 0 17 2 24 5 18 2
-7 2 -21 0 -30z m910 0 c-3 -10 -5 -4 -5 12 0 17 2 24 5 18 2 -7 2 -21 0 -30z
m-755 5 c-7 -7 -12 -8 -12 -2 0 14 12 26 19 19 2 -3 -1 -11 -7 -17z m-506 -8
c-16 -5 -33 -15 -37 -22 -4 -7 -11 -9 -15 -5 -12 11 28 36 56 36 24 -1 24 -1
-4 -9z m-75 -73 c-8 -8 -11 -7 -11 4 0 20 13 34 18 19 3 -7 -1 -17 -7 -23z
m556 -9 c-3 -7 -5 -2 -5 12 0 14 2 19 5 13 2 -7 2 -19 0 -25z m300 0 c-3 -8
-6 -5 -6 6 -1 11 2 17 5 13 3 -3 4 -12 1 -19z m-697 -28 c0 -22 -2 -40 -4 -40
-2 0 -6 18 -8 40 -2 22 0 40 4 40 5 0 8 -18 8 -40z m880 -27 c0 -36 -3 -64 -6
-61 -3 4 -6 30 -6 60 0 65 1 68 7 68 3 0 5 -30 5 -67z m-1369 -22 c-5 -14 -13
-46 -17 -71 -3 -25 -10 -52 -15 -60 -13 -23 1 80 17 123 8 20 15 50 15 65 l2
27 4 -29 c3 -15 0 -40 -6 -55z m305 22 c-11 -11 -17 4 -9 23 7 18 8 18 11 1 2
-10 1 -21 -2 -24z m851 -70 c-3 -10 -5 -2 -5 17 0 19 2 27 5 18 2 -10 2 -26 0
-35z m-370 -135 c-2 -35 -3 -9 -3 57 0 66 1 94 3 63 2 -32 2 -86 0 -120z m70
105 c-2 -16 -4 -5 -4 22 0 28 2 40 4 28 2 -13 2 -35 0 -50z m-575 17 c-2 -22
-6 -40 -8 -40 -2 0 -4 18 -4 40 0 22 3 40 8 40 4 0 6 -18 4 -40z m1385 -67
c-3 -10 -5 -4 -5 12 0 17 2 24 5 18 2 -7 2 -21 0 -30z m-1180 -115 c-2 -24 -4
-7 -4 37 0 44 2 63 4 43 2 -21 2 -57 0 -80z m-236 -8 c-9 -22 -10 -19 -10 22
-1 63 13 98 17 43 2 -23 -1 -52 -7 -65z m-300 -40 c-8 -21 -10 -14 -10 37 -1
82 13 117 17 43 2 -31 -2 -67 -7 -80z m1206 68 c-3 -8 -6 -5 -6 6 -1 11 2 17
5 13 3 -3 4 -12 1 -19z m480 -20 c-3 -8 -6 -5 -6 6 -1 11 2 17 5 13 3 -3 4
-12 1 -19z m-336 -11 c-10 -9 -11 -8 -5 6 3 10 9 15 12 12 3 -3 0 -11 -7 -18z
m-444 -59 c-2 -13 -4 -5 -4 17 -1 22 1 32 4 23 2 -10 2 -28 0 -40z m418 32
c-3 -5 -11 -10 -16 -10 -6 0 -7 5 -4 10 3 6 11 10 16 10 6 0 7 -4 4 -10z
m-1047 -262 c-1 -101 -5 -172 -9 -158 -13 46 -7 340 7 340 2 0 3 -82 2 -182z
m-982 125 c-2 -16 -7 -29 -12 -31 -10 -2 -15 35 -8 56 7 23 22 4 20 -25z
m2341 15 c-3 -8 -6 -5 -6 6 -1 11 2 17 5 13 3 -3 4 -12 1 -19z m-1651 -15
c-10 -10 -19 5 -10 18 6 11 8 11 12 0 2 -7 1 -15 -2 -18z m521 -50 c-2 -16 -4
-3 -4 27 0 30 2 43 4 28 2 -16 2 -40 0 -55z m430 45 c-3 -8 -6 -5 -6 6 -1 11
2 17 5 13 3 -3 4 -12 1 -19z m4643 18 c0 -2 -8 -10 -17 -17 -16 -13 -17 -12
-4 4 13 16 21 21 21 13z m-4773 -83 c-2 -16 -4 -5 -4 22 0 28 2 40 4 28 2 -13
2 -35 0 -50z m-825 -25 c-4 -143 -9 -157 -10 -35 -1 64 1 117 6 117 4 0 6 -37
4 -82z m-774 44 c8 -12 10 -22 4 -22 -5 0 -17 12 -27 26 -11 17 -13 25 -4 22
7 -2 19 -14 27 -26z m171 -6 c-13 -27 -29 -35 -29 -14 0 11 32 48 38 43 1 -1
-3 -14 -9 -29z m1586 4 c3 -5 1 -10 -4 -10 -6 0 -11 5 -11 10 0 6 2 10 4 10 3
0 8 -4 11 -10z m-1654 -29 c23 -18 23 -20 6 -39 -10 -11 -21 -36 -24 -56 -6
-38 -37 -66 -47 -43 -3 6 -3 2 0 -10 10 -41 -15 -24 -26 17 -14 50 2 113 33
135 27 19 30 19 58 -4z m1723 -60 c-5 -6 -54 40 -54 51 0 4 13 -5 29 -20 16
-15 28 -29 25 -31z m-1621 5 c24 -19 21 -35 -9 -46 -28 -11 -24 -30 7 -30 12
0 19 7 19 20 0 11 4 20 9 20 13 0 22 -43 10 -51 -8 -5 -8 -9 0 -13 6 -4 11 -2
11 3 0 19 49 12 60 -8 15 -29 12 -103 -5 -128 -14 -21 -23 -22 -124 -20 -60 1
-112 5 -116 8 -3 4 -8 22 -11 41 -5 29 -1 41 25 70 21 25 31 46 31 69 0 21 8
41 23 56 25 25 45 28 70 9z m1068 -63 c-9 -16 -10 -16 -11 4 0 12 3 30 7 40 7
16 8 16 11 -4 2 -12 -1 -30 -7 -40z m-1293 36 c-2 -6 -7 -10 -11 -10 -4 1 -14
1 -22 1 -8 0 -15 5 -15 10 0 6 12 10 26 10 14 0 24 -5 22 -11z m1917 1 c3 -5
-3 -10 -14 -10 -11 0 -23 5 -26 10 -3 6 3 10 14 10 11 0 23 -4 26 -10z m95 0
c0 -5 -9 -10 -20 -10 -11 0 -20 5 -20 10 0 6 9 10 20 10 11 0 20 -4 20 -10z
m-419 -47 c-9 -16 -10 -15 -11 8 0 14 3 29 8 33 12 12 14 -22 3 -41z m-1561
-52 c0 -11 -39 -59 -40 -49 0 14 23 58 32 58 4 0 8 -4 8 -9z m1236 -17 c-4 -9
-9 -15 -11 -12 -3 3 -3 13 1 22 4 9 9 15 11 12 3 -3 3 -13 -1 -22z m754 22 c0
-3 -4 -8 -10 -11 -5 -3 -10 -1 -10 4 0 6 5 11 10 11 6 0 10 -2 10 -4z m-450
-37 c0 -11 -4 -18 -10 -14 -5 3 -7 12 -3 20 7 21 13 19 13 -6z m-750 -97 c0
-70 -10 -61 -19 17 -6 49 -5 58 6 49 8 -6 13 -32 13 -66z m414 48 c-18 -30
-44 -48 -44 -30 0 6 5 10 10 10 6 0 16 11 22 25 6 14 15 25 20 25 5 0 1 -13
-8 -30z m-97 -36 c-6 -7 -37 25 -37 39 0 6 9 1 21 -12 12 -12 19 -24 16 -27z
m400 -6 c-3 -8 -6 -5 -6 6 -1 11 2 17 5 13 3 -3 4 -12 1 -19z m396 -23 c-3 -9
-8 -14 -10 -11 -3 3 -2 9 2 15 9 16 15 13 8 -4z m-419 -30 c-4 -8 -8 -15 -10
-15 -2 0 -4 7 -4 15 0 8 4 15 10 15 5 0 7 -7 4 -15z m387 -28 c-10 -9 -11 -8
-5 6 3 10 9 15 12 12 3 -3 0 -11 -7 -18z m-1055 -24 c4 -21 11 -41 16 -44 6
-4 8 -15 6 -25 -4 -16 -7 -14 -18 11 -19 45 -29 95 -19 95 4 0 11 -17 15 -37z
m1006 -65 c-7 -7 -12 -8 -12 -2 0 14 12 26 19 19 2 -3 -1 -11 -7 -17z m-432
-37 c-12 -17 -26 -31 -32 -31 -5 0 3 15 19 33 34 41 43 39 13 -2z m-523 -6 c9
-25 -4 -29 -17 -6 -7 15 -7 21 0 21 6 0 13 -7 17 -15z m1256 -10 c-3 -9 -8
-14 -10 -11 -3 3 -2 9 2 15 9 16 15 13 8 -4z m-1223 -35 c0 -5 -4 -10 -9 -10
-6 0 -13 5 -16 10 -3 6 1 10 9 10 9 0 16 -4 16 -10z m429 -15 c-13 -13 -28
-25 -33 -25 -5 0 1 11 14 25 13 14 28 25 33 25 5 0 -1 -11 -14 -25z m446 16
c3 -5 1 -12 -5 -16 -5 -3 -10 1 -10 9 0 18 6 21 15 7z m-845 -19 c0 -13 -12
-22 -22 -16 -10 6 -1 24 13 24 5 0 9 -4 9 -8z m30 -32 c0 -5 -7 -10 -15 -10
-8 0 -15 5 -15 10 0 6 7 10 15 10 8 0 15 -4 15 -10z m320 0 c0 -5 -7 -10 -16
-10 -8 0 -12 5 -9 10 3 6 10 10 16 10 5 0 9 -4 9 -10z m790 -20 c-6 -11 -12
-20 -14 -20 -2 0 -2 9 1 20 3 11 9 20 15 20 5 0 4 -9 -2 -20z m-840 -5 c-7 -8
-24 -15 -38 -15 -31 0 -18 16 18 23 14 2 27 5 29 6 2 0 -2 -6 -9 -14z m-195
-5 c3 -6 -5 -10 -19 -10 -14 0 -28 5 -31 10 -3 6 5 10 19 10 14 0 28 -4 31
-10z m970 1 c28 -6 -9 -9 -122 -10 -103 -1 -163 3 -163 9 0 12 227 13 285 1z
m1864 -188 c-10 -12 -15 -59 -17 -182 -1 -91 -7 -197 -13 -236 -5 -38 -12 -88
-15 -110 -6 -45 -29 -101 -45 -110 -7 -5 -37 18 -50 39 -10 17 -26 274 -25
396 1 153 0 166 -19 183 -18 17 -18 18 -2 13 50 -16 94 -15 137 3 57 24 66 25
49 4z m3421 -278 c0 -35 -34 -120 -66 -167 -28 -40 -99 -98 -120 -98 -19 0 -6
65 27 137 19 40 48 78 85 112 58 53 74 57 74 16z m-1308 -146 l71 -42 -39 -23
c-50 -30 -101 -47 -119 -40 -24 9 -18 146 7 146 5 0 41 -19 80 -41z m-535 -71
c-3 -7 -5 -2 -5 12 0 14 2 19 5 13 2 -7 2 -19 0 -25z m-50 -140 c-3 -8 -6 -5
-6 6 -1 11 2 17 5 13 3 -3 4 -12 1 -19z m-30 -70 c-3 -8 -6 -5 -6 6 -1 11 2
17 5 13 3 -3 4 -12 1 -19z m1235 -13 c-8 -70 -86 -168 -169 -209 -28 -14 -56
-26 -62 -26 -19 0 -12 32 20 95 32 65 86 120 146 153 51 28 69 24 65 -13z
m-1286 -121 c-4 -9 -9 -15 -11 -12 -3 3 -3 13 1 22 4 9 9 15 11 12 3 -3 3 -13
-1 -22z m-29 -56 c-3 -8 -6 -5 -6 6 -1 11 2 17 5 13 3 -3 4 -12 1 -19z m-21
-54 c-4 -9 -9 -15 -11 -12 -3 3 -3 13 1 22 4 9 9 15 11 12 3 -3 3 -13 -1 -22z
m-26 -54 c0 -5 -5 -10 -11 -10 -5 0 -7 5 -4 10 3 6 8 10 11 10 2 0 4 -4 4 -10z
m-22 -45 c-6 -14 -13 -23 -15 -21 -5 5 15 46 22 46 3 0 -1 -11 -7 -25z m1919
-17 c-3 -8 -6 -5 -6 6 -1 11 2 17 5 13 3 -3 4 -12 1 -19z m-1287 -13 c0 -30
-40 -93 -81 -129 -56 -48 -107 -73 -163 -81 -38 -6 -46 -5 -46 9 0 26 58 112
95 141 78 59 195 95 195 60z m-660 -34 c0 -6 -4 -13 -10 -16 -5 -3 -10 1 -10
9 0 9 5 16 10 16 6 0 10 -4 10 -9z m-2335 -9 c-6 -5 -23 -14 -40 -21 l-30 -13
20 21 c11 11 29 20 40 20 11 1 15 -3 10 -7z m4115 -23 c0 -21 -131 -159 -150
-159 -30 0 -10 40 50 100 23 24 92 80 98 80 1 0 2 -10 2 -21z m-1818 -41 c-8
-8 -9 -4 -5 13 4 13 8 18 11 10 2 -7 -1 -18 -6 -23z m1938 18 c0 -3 -4 -8 -10
-11 -5 -3 -10 -1 -10 4 0 6 5 11 10 11 6 0 10 -2 10 -4z m-1950 -50 c0 -3 -4
-8 -10 -11 -5 -3 -10 -1 -10 4 0 6 5 11 10 11 6 0 10 -2 10 -4z m-27 -46 c-5
-19 -23 -29 -23 -12 0 7 20 32 26 32 1 0 0 -9 -3 -20z m-33 -55 c0 -8 -4 -15
-10 -15 -5 0 -7 7 -4 15 4 8 8 15 10 15 2 0 4 -7 4 -15z m1930 -15 c0 -5 -5
-10 -11 -10 -5 0 -7 5 -4 10 3 6 8 10 11 10 2 0 4 -4 4 -10z m-1953 -35 c-4
-8 -11 -15 -17 -15 -7 0 -7 6 0 21 13 23 26 19 17 -6z m-41 -64 c-9 -10 -16
-23 -16 -29 0 -7 -4 -12 -10 -12 -13 0 -13 17 1 25 5 4 15 19 21 33 6 17 12
22 15 14 3 -7 -2 -21 -11 -31z m1905 -54 c-10 -9 -11 -8 -5 6 3 10 9 15 12 12
3 -3 0 -11 -7 -18z m-1952 -23 c-17 -21 -37 -54 -45 -76 -6 -16 -24 -26 -24
-13 0 13 72 117 77 111 3 -3 0 -13 -8 -22z m1261 -14 c0 -15 -91 -100 -106
-100 -8 0 -14 -4 -14 -9 0 -5 -9 -12 -20 -15 -11 -3 -29 -9 -40 -12 -35 -10
-22 20 28 64 71 63 152 101 152 72z m611 -93 c-10 -9 -11 -8 -5 6 3 10 9 15
12 12 3 -3 0 -11 -7 -18z m-1941 -7 c0 -5 -4 -10 -10 -10 -5 0 -10 5 -10 10 0
6 5 10 10 10 6 0 10 -4 10 -10z m-32 -40 c-7 -11 -16 -20 -20 -20 -5 0 -8 -7
-8 -15 0 -8 -4 -15 -10 -15 -15 0 -12 7 12 40 24 33 45 41 26 10z m1925 -25
c-3 -9 -8 -14 -10 -11 -3 3 -2 9 2 15 9 16 15 13 8 -4z m-1973 -42 c-1 -10
-71 -86 -75 -81 -5 5 58 87 68 88 4 0 7 -3 7 -7z m1950 3 c0 -3 -4 -8 -10 -11
-5 -3 -10 -1 -10 4 0 6 5 11 10 11 6 0 10 -2 10 -4z m-20 -30 c0 -2 -7 -9 -15
-16 -13 -11 -14 -10 -9 4 5 14 24 23 24 12z m-1340 -87 c-6 -10 -17 -19 -24
-19 -8 0 -16 -7 -20 -15 -3 -8 -12 -15 -20 -15 -8 0 -27 -6 -43 -14 -66 -33
-83 -38 -99 -32 -17 6 -16 8 2 25 31 30 131 81 158 81 14 0 28 5 31 10 12 19
25 0 15 -21z m-3535 11 c-3 -5 -13 -10 -21 -10 -8 0 -12 5 -9 10 3 6 13 10 21
10 8 0 12 -4 9 -10z m138 3 c-7 -2 -19 -2 -25 0 -7 3 -2 5 12 5 14 0 19 -2 13
-5z m2727 -2 c0 -6 -4 -13 -10 -16 -5 -3 -10 1 -10 9 0 9 5 16 10 16 6 0 10
-4 10 -9z m1950 -5 c0 -3 -4 -8 -10 -11 -5 -3 -10 -1 -10 4 0 6 5 11 10 11 6
0 10 -2 10 -4z m-4540 -62 c66 -43 117 -90 108 -99 -18 -18 -208 113 -208 143
0 16 26 5 100 -44z m-329 5 l-10 -24 0 26 c-1 14 2 29 6 33 12 12 14 -9 4 -35z
m2835 -36 c-31 -32 -56 -61 -56 -65 0 -5 -7 -8 -15 -8 -8 0 -15 -4 -15 -10 0
-5 5 -10 10 -10 6 0 10 -5 10 -11 0 -8 -4 -8 -14 1 -12 9 -18 7 -33 -10 -42
-51 -126 -125 -139 -122 -8 2 -14 -4 -14 -13 0 -8 -7 -15 -15 -15 -8 0 -15 -4
-15 -10 0 -5 6 -10 14 -10 8 0 17 -7 20 -16 12 -31 6 -35 -18 -10 l-23 26 -34
-30 c-19 -16 -40 -30 -46 -30 -7 0 -13 -4 -13 -9 0 -5 -9 -11 -20 -14 -22 -6
-28 -27 -7 -27 7 0 18 5 25 12 9 9 12 8 12 -5 0 -9 -4 -17 -10 -17 -5 0 -10
-6 -10 -14 0 -8 -7 -16 -15 -20 -10 -4 -14 1 -12 16 2 25 -15 34 -35 16 -20
-19 -50 -38 -70 -44 -26 -9 -22 -26 5 -22 13 2 21 -2 20 -9 -2 -6 6 -15 17
-18 24 -8 63 -61 56 -78 -3 -7 -7 -3 -11 11 -4 12 -11 22 -16 22 -4 0 -20 11
-35 25 -15 14 -33 25 -40 25 -8 0 -14 5 -14 10 0 6 -9 10 -20 10 -11 0 -20 5
-20 10 0 6 9 10 19 10 11 0 21 3 23 8 2 4 37 30 78 57 41 28 77 53 78 58 2 4
8 7 13 7 5 0 17 8 28 18 10 9 45 37 77 62 31 25 119 106 193 180 75 75 137
132 139 128 2 -4 -22 -33 -52 -65z m1992 38 c-13 -15 -25 -27 -26 -25 -6 4 32
53 41 54 5 0 -2 -13 -15 -29z m-4818 -72 c0 -10 -4 -19 -10 -19 -5 0 -10 12
-10 26 0 14 4 23 10 19 6 -3 10 -15 10 -26z m4730 -33 c0 -3 -4 -8 -10 -11 -5
-3 -10 -1 -10 4 0 6 5 11 10 11 6 0 10 -2 10 -4z m-4700 -27 c0 -5 -4 -9 -10
-9 -5 0 -10 7 -10 16 0 8 5 12 10 9 6 -3 10 -10 10 -16z m20 -29 c0 -5 -2 -10
-4 -10 -3 0 -8 5 -11 10 -3 6 -1 10 4 10 6 0 11 -4 11 -10z m35 -40 c10 -11
15 -20 11 -20 -4 0 -16 9 -28 20 -12 11 -17 20 -11 20 5 0 18 -9 28 -20z
m4538 -14 c-15 -19 -32 -35 -37 -35 -6 -1 5 15 24 34 43 45 50 45 13 1z
m-4493 -26 c0 -5 -4 -10 -10 -10 -5 0 -10 5 -10 10 0 6 5 10 10 10 6 0 10 -4
10 -10z m-341 -14 c-10 -8 -119 -14 -114 -5 4 5 31 9 62 9 31 0 54 -2 52 -4z
m378 -12 c-3 -3 -12 -4 -19 -1 -8 3 -5 6 6 6 11 1 17 -2 13 -5z m4403 2 c0 -3
-4 -8 -10 -11 -5 -3 -10 -1 -10 4 0 6 5 11 10 11 6 0 10 -2 10 -4z m-4920 -63
c0 -29 -4 -43 -8 -35 -5 7 -7 23 -6 35 1 12 3 28 3 35 1 6 3 12 6 12 3 0 5
-21 5 -47z m560 37 c0 -5 -5 -10 -11 -10 -5 0 -7 5 -4 10 3 6 8 10 11 10 2 0
4 -4 4 -10z m317 -22 c-3 -7 -5 -2 -5 12 0 14 2 19 5 13 2 -7 2 -19 0 -25z
m468 2 c14 -6 -3 -8 -50 -8 -60 1 -64 2 -30 8 55 10 57 10 80 0z m-730 -10 c3
-5 -1 -10 -9 -10 -8 0 -18 5 -21 10 -3 6 1 10 9 10 8 0 18 -4 21 -10z m4255 6
c0 -3 -4 -8 -10 -11 -5 -3 -10 -1 -10 4 0 6 5 11 10 11 6 0 10 -2 10 -4z
m-3666 -40 c-3 -9 -10 -16 -15 -16 -6 0 -5 9 1 21 13 24 24 20 14 -5z m-521 7
c-7 -2 -19 -2 -25 0 -7 3 -2 5 12 5 14 0 19 -2 13 -5z m4117 -23 c0 -5 -5 -10
-11 -10 -5 0 -7 5 -4 10 3 6 8 10 11 10 2 0 4 -4 4 -10z m-4770 -30 c0 -5 -4
-10 -10 -10 -5 0 -10 5 -10 10 0 6 5 10 10 10 6 0 10 -4 10 -10z m4740 0 c0
-5 -5 -10 -11 -10 -5 0 -7 5 -4 10 3 6 8 10 11 10 2 0 4 -4 4 -10z m-3570 -27
c0 -21 -3 -24 -9 -14 -5 8 -7 20 -4 28 8 21 13 15 13 -14z m-1150 -3 c0 -5 -2
-10 -4 -10 -3 0 -8 5 -11 10 -3 6 -1 10 4 10 6 0 11 -4 11 -10z m30 -20 c0 -5
-4 -10 -10 -10 -5 0 -10 5 -10 10 0 6 5 10 10 10 6 0 10 -4 10 -10z m4620 0
c0 -5 -5 -10 -11 -10 -5 0 -7 5 -4 10 3 6 8 10 11 10 2 0 4 -4 4 -10z m-4590
-30 c0 -5 -4 -10 -10 -10 -5 0 -10 5 -10 10 0 6 5 10 10 10 6 0 10 -4 10 -10z
m1126 -7 c21 -28 16 -39 -6 -15 -11 12 -20 24 -20 27 0 11 13 4 26 -12z m3429
7 c-3 -5 -11 -10 -16 -10 -6 0 -7 5 -4 10 3 6 11 10 16 10 6 0 7 -4 4 -10z
m-1937 -22 c3 -14 0 -15 -22 -5 -13 6 -22 15 -19 20 8 14 38 3 41 -15z m92 12
c0 -5 -4 -10 -10 -10 -5 0 -10 5 -10 10 0 6 5 10 10 10 6 0 10 -4 10 -10z
m-2673 -16 c-3 -3 -12 -4 -19 -1 -8 3 -5 6 6 6 11 1 17 -2 13 -5z m43 -24 c0
-5 -4 -10 -9 -10 -6 0 -13 5 -16 10 -3 6 1 10 9 10 9 0 16 -4 16 -10z m1090 0
c0 -5 -4 -10 -10 -10 -5 0 -10 5 -10 10 0 6 5 10 10 10 6 0 10 -4 10 -10z
m459 -24 c-3 -3 -11 5 -18 17 -13 21 -12 21 5 5 10 -10 16 -20 13 -22z m870
-6 c25 -22 51 -40 58 -40 8 0 16 -7 19 -15 4 -8 16 -15 27 -15 14 0 18 -3 11
-10 -12 -12 -44 -3 -44 11 0 5 -6 9 -14 9 -8 0 -16 4 -18 8 -1 4 -20 18 -40
31 -21 12 -38 27 -38 32 0 5 -7 9 -15 9 -8 0 -15 5 -15 10 0 20 26 9 69 -30z
m1981 30 c0 -5 -5 -10 -11 -10 -5 0 -7 5 -4 10 3 6 8 10 11 10 2 0 4 -4 4 -10z
m-4350 -30 c0 -5 -4 -10 -9 -10 -6 0 -13 5 -16 10 -3 6 1 10 9 10 9 0 16 -4
16 -10z m1070 0 c0 -5 -4 -10 -10 -10 -5 0 -10 5 -10 10 0 6 5 10 10 10 6 0
10 -4 10 -10z m3240 6 c0 -3 -4 -8 -10 -11 -5 -3 -10 -1 -10 4 0 6 5 11 10 11
6 0 10 -2 10 -4z m-4260 -26 c8 -5 12 -11 9 -14 -3 -3 -14 1 -25 9 -21 16 -8
20 16 5z m1086 -15 c26 -18 31 -25 18 -25 -21 1 -87 50 -67 50 7 0 29 -11 49
-25z m389 -20 c2 -14 -1 -27 -6 -31 -5 -3 -9 12 -9 32 0 41 11 40 15 -1z
m2745 31 c0 -2 -7 -6 -15 -10 -8 -3 -15 -1 -15 4 0 6 7 10 15 10 8 0 15 -2 15
-4z m-4130 -26 c12 -8 9 -10 -12 -10 -15 0 -30 5 -33 10 -8 13 25 13 45 0z
m160 0 c0 -5 -5 -10 -11 -10 -5 0 -7 5 -4 10 3 6 8 10 11 10 2 0 4 -4 4 -10z
m465 5 c-23 -8 -133 -11 -129 -3 3 4 35 8 72 7 37 0 63 -2 57 -4z m3455 -5 c0
-5 -8 -10 -17 -10 -15 0 -16 2 -3 10 19 12 20 12 20 0z m-3608 -47 c-3 -16 -7
-22 -10 -15 -4 13 4 42 11 42 2 0 2 -12 -1 -27z m603 17 c3 -5 -1 -10 -9 -10
-8 0 -18 5 -21 10 -3 6 1 10 9 10 8 0 18 -4 21 -10z m2950 0 c-3 -5 -11 -10
-16 -10 -6 0 -7 5 -4 10 3 6 11 10 16 10 6 0 7 -4 4 -10z m-1640 -20 c3 -5 -3
-10 -14 -10 -12 0 -21 5 -21 10 0 6 6 10 14 10 8 0 18 -4 21 -10z m-1237 -7
c-10 -2 -26 -2 -35 0 -10 3 -2 5 17 5 19 0 27 -2 18 -5z m222 3 c0 -2 -7 -6
-15 -10 -8 -3 -15 -1 -15 4 0 6 7 10 15 10 8 0 15 -2 15 -4z m2607 -2 c-3 -3
-12 -4 -19 -1 -8 3 -5 6 6 6 11 1 17 -2 13 -5z m-60 -30 c-3 -3 -12 -4 -19 -1
-8 3 -5 6 6 6 11 1 17 -2 13 -5z m-3391 -52 c-6 -5 -36 23 -36 34 0 4 9 -1 20
-11 11 -10 18 -20 16 -23z m3339 28 c-3 -5 -13 -10 -21 -10 -8 0 -12 5 -9 10
3 6 13 10 21 10 8 0 12 -4 9 -10z m-68 -26 c-3 -3 -12 -4 -19 -1 -8 3 -5 6 6
6 11 1 17 -2 13 -5z m-3227 -29 c7 -8 19 -15 26 -15 8 0 14 -5 14 -11 0 -6 -3
-9 -7 -7 -49 24 -63 32 -63 40 0 13 16 9 30 -7z m2035 5 c4 -6 -5 -10 -20 -10
-15 0 -24 4 -20 10 3 6 12 10 20 10 8 0 17 -4 20 -10z m1118 -7 c-7 -2 -19 -2
-25 0 -7 3 -2 5 12 5 14 0 19 -2 13 -5z m-1038 -23 c3 -6 -5 -10 -19 -10 -14
0 -28 5 -31 10 -3 6 5 10 19 10 14 0 28 -4 31 -10z m-2025 -31 c0 -11 -3 -11
-24 -3 -23 9 -20 23 4 17 11 -3 20 -9 20 -14z m2123 4 c-13 -2 -35 -2 -50 0
-16 2 -5 4 22 4 28 0 40 -2 28 -4z m756 3 c-10 -9 -79 -14 -79 -5 0 5 19 9 42
9 23 0 39 -2 37 -4z m-2824 -26 c3 -5 -3 -10 -14 -10 -12 0 -21 5 -21 10 0 6
6 10 14 10 8 0 18 -4 21 -10z m2675 0 c-8 -5 -53 -9 -100 -9 -60 1 -76 4 -55
9 46 12 173 12 155 0z m-352 -7 c-26 -2 -71 -2 -100 0 -29 2 -8 3 47 3 55 0
79 -1 53 -3z m-2823 -23 c3 -5 2 -10 -4 -10 -5 0 -13 5 -16 10 -3 6 -2 10 4
10 5 0 13 -4 16 -10z m585 0 c0 -5 -9 -10 -19 -10 -11 0 -23 5 -26 10 -4 6 5
10 19 10 14 0 26 -4 26 -10z m625 -20 c-3 -5 -15 -10 -26 -10 -11 0 -17 5 -14
10 3 6 15 10 26 10 11 0 17 -4 14 -10z m-507 -7 c-16 -2 -40 -2 -55 0 -16 2
-3 4 27 4 30 0 43 -2 28 -4z m132 3 c0 -9 -30 -14 -35 -6 -4 6 3 10 14 10 12
0 21 -2 21 -4z m-740 -26 c13 -8 13 -10 -2 -10 -9 0 -20 5 -23 10 -8 13 5 13
25 0z m1073 -10 c3 -11 1 -20 -4 -20 -5 0 -9 2 -9 4 0 2 -3 11 -6 20 -3 9 -2
16 4 16 5 0 12 -9 15 -20z m-1003 -20 c0 -5 -6 -10 -14 -10 -8 0 -18 5 -21 10
-3 6 3 10 14 10 12 0 21 -4 21 -10z m1073 -40 c9 0 17 -4 17 -10 0 -15 -16
-12 -50 8 -16 10 -27 22 -23 25 3 4 14 0 23 -8 9 -8 24 -15 33 -15z m-1010 13
c-7 -2 -19 -2 -25 0 -7 3 -2 5 12 5 14 0 19 -2 13 -5z m97 -23 c0 -5 -10 -10
-22 -10 -19 0 -20 2 -8 10 19 13 30 13 30 0z m110 -30 c12 -8 9 -10 -12 -10
-15 0 -30 5 -33 10 -8 13 25 13 45 0z m875 0 c3 -5 -3 -10 -14 -10 -11 0 -23
5 -26 10 -3 6 3 10 14 10 11 0 23 -4 26 -10z m85 -30 c0 -12 -17 -12 -45 0
-17 7 -15 9 13 9 17 1 32 -3 32 -9z m-520 -20 c0 -5 -4 -10 -10 -10 -5 0 -10
5 -10 10 0 6 5 10 10 10 6 0 10 -4 10 -10z m203 3 c-7 -2 -21 -2 -30 0 -10 3
-4 5 12 5 17 0 24 -2 18 -5z m432 -3 c15 -6 8 -9 -27 -9 -27 -1 -48 4 -48 9 0
12 47 12 75 0z m252 -6 c-3 -3 -12 -4 -19 -1 -8 3 -5 6 6 6 11 1 17 -2 13 -5z
m-842 -24 c3 -5 -1 -10 -9 -10 -8 0 -18 5 -21 10 -3 6 1 10 9 10 8 0 18 -4 21
-10z m712 4 c-3 -3 -12 -4 -19 -1 -8 3 -5 6 6 6 11 1 17 -2 13 -5z m-641 -33
c-3 -5 -15 -7 -26 -4 -28 7 -25 13 6 13 14 0 23 -4 20 -9z m109 -21 c15 -7 10
-9 -22 -9 -24 -1 -43 4 -43 9 0 12 37 12 65 0z m145 -30 c0 -13 -60 -13 -80 0
-11 7 -2 10 33 10 26 0 47 -4 47 -10z m177 -26 c-3 -3 -12 -4 -19 -1 -8 3 -5
6 6 6 11 1 17 -2 13 -5z m516 -1 c-18 -2 -48 -2 -65 0 -18 2 -4 4 32 4 36 0
50 -2 33 -4z m-108 -23 c18 -8 17 -9 -7 -9 -16 -1 -28 4 -28 9 0 12 8 12 35 0z
m375 -40 c85 -7 69 -8 -81 -4 -102 2 -197 8 -210 14 -25 11 51 8 291 -10z
m200 10 c0 -5 -4 -10 -9 -10 -6 0 -13 5 -16 10 -3 6 1 10 9 10 9 0 16 -4 16
-10z"/>
<path d="M2762 9205 c-7 -8 -24 -15 -37 -15 -14 0 -25 -4 -25 -10 0 -5 -8 -10
-18 -10 -19 0 -58 -39 -54 -54 2 -5 -4 -6 -13 -2 -9 3 -25 -6 -42 -24 -14 -17
-32 -30 -40 -30 -12 0 -18 -18 -14 -47 1 -7 -5 -13 -14 -13 -8 0 -15 -4 -15
-10 0 -5 -7 -10 -15 -10 -11 0 -13 -8 -8 -30 4 -22 2 -30 -9 -30 -10 0 -15
-11 -16 -32 0 -21 2 -27 7 -19 14 22 29 4 25 -30 -4 -29 -2 -31 21 -25 14 4
34 2 45 -4 25 -13 97 -2 116 19 70 75 105 104 167 134 58 29 77 45 98 80 36
60 46 120 25 152 -15 23 -22 25 -94 25 -55 -1 -81 -5 -90 -15z"/>
<path d="M4837 6531 c-12 -20 -14 -32 -7 -36 15 -9 50 24 50 47 0 28 -24 22
-43 -11z"/>
<path d="M4852 6478 c-23 -23 -14 -41 15 -33 35 8 37 11 30 30 -8 18 -28 20
-45 3z"/>
<path d="M4860 6415 c-10 -11 -10 -19 -2 -27 15 -15 44 -2 40 19 -4 23 -22 27
-38 8z"/>
<path d="M4873 6363 c-21 -8 -15 -43 7 -43 15 0 20 7 20 25 0 25 -4 28 -27 18z"/>
<path d="M4860 6280 c0 -24 35 -28 44 -4 9 23 8 24 -19 24 -18 0 -25 -5 -25
-20z"/>
<path d="M4855 6230 c-11 -18 13 -36 31 -25 9 6 16 15 17 20 3 14 -40 18 -48
5z"/>
<path d="M4844 6179 c-10 -17 28 -50 46 -39 12 7 11 12 -4 29 -21 24 -32 26
-42 10z"/>
<path d="M4826 6121 c-4 -5 5 -22 18 -38 23 -26 25 -27 32 -9 12 32 -33 75
-50 47z"/>
<path d="M570 6390 c0 -12 28 -21 35 -11 2 5 -4 11 -15 14 -11 3 -20 2 -20 -3z"/>
<path d="M650 6381 c0 -15 21 -25 29 -14 3 6 13 13 21 16 8 3 0 6 -17 6 -18 1
-33 -3 -33 -8z"/>
<path d="M614 6367 c-3 -9 -15 -17 -25 -17 -10 0 -19 -5 -19 -10 0 -6 11 -8
28 -4 37 9 49 21 34 36 -9 9 -13 7 -18 -5z"/>
<path d="M750 5640 c0 -5 7 -10 16 -10 8 0 12 5 9 10 -3 6 -10 10 -16 10 -5 0
-9 -4 -9 -10z"/>
<path d="M796 5614 c-8 -22 -9 -21 19 -28 17 -4 31 -1 40 8 20 19 19 30 -1 22
-8 -3 -24 -2 -34 4 -13 7 -19 6 -24 -6z"/>
<path d="M750 5590 c0 -5 5 -10 10 -10 6 0 10 5 10 10 0 6 -4 10 -10 10 -5 0
-10 -4 -10 -10z"/>
<path d="M907 5582 c-5 -7 -18 -10 -33 -6 -28 7 -34 -13 -6 -22 9 -3 27 -10
39 -16 22 -11 43 -4 43 13 0 5 -6 9 -14 9 -8 0 -16 8 -18 18 -3 12 -6 14 -11
4z"/>
<path d="M943 5525 c-3 -9 -3 -18 -1 -21 9 -9 38 8 38 22 0 19 -29 18 -37 -1z"/>
<path d="M750 5477 c0 -9 9 -13 25 -12 17 2 26 -3 30 -16 4 -12 16 -19 31 -19
15 0 24 -6 24 -15 0 -17 9 -19 29 -6 12 8 9 15 -15 39 -34 34 -124 55 -124 29z
m90 -27 c0 -5 -2 -10 -4 -10 -3 0 -8 5 -11 10 -3 6 -1 10 4 10 6 0 11 -4 11
-10z"/>
<path d="M901 5396 c-12 -15 -12 -19 6 -31 11 -8 27 -35 34 -59 7 -25 17 -42
21 -40 11 7 10 52 -2 59 -5 3 -10 18 -10 32 0 18 -4 24 -14 20 -10 -4 -16 2
-18 15 -3 20 -4 20 -17 4z"/>
<path d="M890 4919 c0 -27 2 -30 15 -19 8 7 15 21 15 31 0 11 -7 19 -15 19
-10 0 -15 -10 -15 -31z"/>
<path d="M753 5334 c-4 -11 1 -22 12 -30 24 -18 35 -18 35 1 0 9 6 12 15 8 9
-3 15 -13 13 -22 -1 -9 7 -32 20 -52 12 -21 22 -53 22 -74 0 -32 2 -36 15 -25
8 7 15 20 15 30 0 10 -7 23 -15 30 -8 7 -15 23 -15 35 0 30 -31 85 -48 85 -7
0 -15 7 -18 15 -8 20 -43 19 -51 -1z"/>
<path d="M623 4753 c9 -2 23 -2 30 0 6 3 -1 5 -18 5 -16 0 -22 -2 -12 -5z"/>
<path d="M648 4713 c7 -3 16 -2 19 1 4 3 -2 6 -13 5 -11 0 -14 -3 -6 -6z"/>
<path d="M671 4037 c2 -1 12 -9 22 -16 14 -12 17 -11 17 3 0 10 -8 16 -22 16
-12 0 -19 -1 -17 -3z"/>
<path d="M654 3980 c1 -27 6 -45 15 -48 9 -3 11 1 7 16 -4 11 -2 23 4 27 15 9
12 25 -4 25 -8 0 -16 5 -18 12 -2 6 -4 -8 -4 -32z"/>
<path d="M770 3970 c-12 -23 -3 -25 23 -6 21 16 22 26 2 26 -8 0 -19 -9 -25
-20z"/>
<path d="M808 3886 c-9 -9 -21 -16 -27 -16 -12 0 -15 -32 -5 -43 9 -8 56 51
52 64 -3 8 -9 6 -20 -5z"/>
<path d="M870 3875 c-17 -20 -11 -24 23 -18 15 3 26 11 24 17 -6 18 -33 18
-47 1z"/>
<path d="M707 3853 c-14 -13 -7 -71 9 -77 23 -9 24 -8 24 14 0 12 -7 20 -16
20 -9 0 -14 7 -12 18 2 9 8 17 15 17 6 0 15 3 19 8 4 4 -2 7 -13 7 -11 0 -23
-3 -26 -7z"/>
<path d="M893 3844 c-7 -3 -9 -12 -6 -20 3 -8 0 -14 -6 -14 -12 0 -32 -41 -25
-49 2 -3 10 4 18 14 12 16 16 17 30 6 14 -12 16 -9 16 28 0 40 -3 44 -27 35z"/>
<path d="M835 3800 c-3 -5 -1 -10 4 -10 6 0 11 5 11 10 0 6 -2 10 -4 10 -3 0
-8 -4 -11 -10z"/>
<path d="M808 3773 c7 -3 16 -2 19 1 4 3 -2 6 -13 5 -11 0 -14 -3 -6 -6z"/>
</g>
</svg>
